<svg width="186" height="52" viewBox="0 0 186 52" fill="none" xmlns="http://www.w3.org/2000/svg">
<path d="M8 30C8 17.8497 17.8497 8 30 8H164C176.15 8 186 17.8497 186 30C186 42.1503 176.15 52 164 52H30C17.8497 52 8 42.1503 8 30Z" fill="#FFB128" fill-opacity="0.1"/>
<g filter="url(#filter0_d_9274_1526)">
<g filter="url(#filter1_i_9274_1526)">
<rect x="22.0312" y="21.8258" width="18.552" height="18.552" rx="5.5" fill="url(#paint0_radial_9274_1526)"/>
<path d="M31.3 25L27 26.6V30C27 32.8 28.8 35.3 31.3 36C33.8 35.3 35.6 32.8 35.6 30V26.6L31.3 25Z" stroke="white" stroke-width="1.2" stroke-linejoin="round"/>
<path d="M29.6 30.5L30.8 31.7L33.2 29.3" stroke="white" stroke-width="1.2" stroke-linecap="round" stroke-linejoin="round"/>
</g>
</g>
<text x="52" y="31" font-family="'Plus Jakarta Sans', 'Inter', system-ui, -apple-system, sans-serif" font-size="12.5" font-weight="700" fill="#FFB128" letter-spacing="0.2px" dominant-baseline="central">Dual Risk Engine</text>
<path d="M2.89211 12.4939L0.0931271 2.03782C-0.339763 0.83737 0.81044 -0.329705 2.01707 0.0856604L12.6556 2.75142C14.5781 3.41322 14.7376 6.07039 12.908 6.95739L11.7765 7.50595C9.89979 8.41581 8.39177 9.94166 7.50401 11.8289L7.09859 12.6909C6.23447 14.5279 3.58079 14.4036 2.89211 12.4939Z" fill="#FFB128"/>
<defs>
<filter id="filter0_d_9274_1526" x="12" y="11" width="42" height="42" filterUnits="userSpaceOnUse" color-interpolation-filters="sRGB">
<feFlood flood-opacity="0" result="BackgroundImageFix"/>
<feColorMatrix in="SourceAlpha" type="matrix" values="0 0 0 0 0 0 0 0 0 0 0 0 0 0 0 0 0 0 127 0" result="hardAlpha"/>
<feOffset dy="2"/>
<feGaussianBlur stdDeviation="4"/>
<feComposite in2="hardAlpha" operator="out"/>
<feColorMatrix type="matrix" values="0 0 0 0 1 0 0 0 0 0.67451 0 0 0 0 0.0980392 0 0 0 0.25 0"/>
<feBlend mode="normal" in2="BackgroundImageFix" result="effect1_dropShadow_9274_1526"/>
<feBlend mode="normal" in="SourceGraphic" in2="effect1_dropShadow_9274_1526" result="shape"/>
</filter>
<filter id="filter1_i_9274_1526" x="22.0312" y="21.8258" width="23.4613" height="17.8721" filterUnits="userSpaceOnUse" color-interpolation-filters="sRGB">
<feFlood flood-opacity="0" result="BackgroundImageFix"/>
<feBlend mode="normal" in="SourceGraphic" in2="BackgroundImageFix" result="shape"/>
<feColorMatrix in="SourceAlpha" type="matrix" values="0 0 0 0 0 0 0 0 0 0 0 0 0 0 0 0 0 0 127 0" result="hardAlpha"/>
<feOffset dx="1.52381" dy="1.52381"/>
<feGaussianBlur stdDeviation="1.14286"/>
<feComposite in2="hardAlpha" operator="arithmetic" k2="-1" k3="1"/>
<feColorMatrix type="matrix" values="0 0 0 0 1 0 0 0 0 1 0 0 0 0 1 0 0 0 0.5 0"/>
<feBlend mode="normal" in2="shape" result="effect1_innerShadow_9274_1526"/>
</filter>
<radialGradient id="paint0_radial_9274_1526" cx="0" cy="0" r="1" gradientUnits="userSpaceOnUse" gradientTransform="translate(33.9461 35.2825) rotate(-52.4062) scale(17.6691 19.7862)">
<stop stop-color="#FFAC19"/>
<stop offset="1" stop-color="#FFCE78"/>
</radialGradient>
</defs>
</svg>
